<svg width="35" height="20" viewBox="0 0 35 20" fill="none" xmlns="http://www.w3.org/2000/svg">
<rect width="35" height="20" rx="3.75" fill="white"/>
<path d="M25.8291 5.73909L25.1519 7.23199H26.51L25.8291 5.73909ZM18.0145 6.66421C18.1422 6.60362 18.2173 6.47184 18.2173 6.30819C18.2173 6.14782 18.1383 6.03167 18.0107 5.97709C17.8945 5.91659 17.7156 5.9096 17.5441 5.9096H16.3325V6.74141H17.5278C17.7193 6.74146 17.8792 6.7389 18.0145 6.66421ZM2.48986 5.73909L1.82031 7.23199H3.16344L2.48986 5.73909ZM33.663 15.303H31.7629V14.4998H33.6553C33.8429 14.4998 33.9743 14.4774 34.0534 14.407C34.1282 14.3442 34.1705 14.2555 34.1697 14.1628C34.1697 14.0536 34.1221 13.9669 34.0495 13.9151C33.9782 13.8579 33.8741 13.8319 33.7028 13.8319C32.7789 13.8033 31.6264 13.8578 31.6264 12.6725C31.6264 12.1293 32.0056 11.5574 33.0381 11.5574H34.998V10.8121H33.1771C32.6276 10.8121 32.2283 10.9319 31.9456 11.1181V10.8121H29.2523C28.8216 10.8121 28.3161 10.9092 28.077 11.1181V10.8121H23.2671V11.1181C22.8844 10.8668 22.2384 10.8121 21.9405 10.8121H18.7679V11.1181C18.4651 10.8513 17.7915 10.8121 17.3812 10.8121H13.8306L13.0182 11.6121L12.2572 10.8121H6.95322V16.0391H12.1571L12.9942 15.2263L13.7829 16.0391L16.9905 16.0417V14.8121H17.306C17.7316 14.8183 18.2335 14.8026 18.6765 14.6284V16.0389H21.3223V14.6766H21.4499C21.6127 14.6766 21.6289 14.6828 21.6289 14.8308V16.0386H29.6665C30.1768 16.0386 30.7102 15.9199 31.0055 15.7041V16.0386H33.555C34.0855 16.0386 34.6037 15.971 34.9979 15.7978V14.8241C34.759 15.142 34.2932 15.303 33.663 15.303ZM17.3481 14.0688H16.1204V15.3252H14.208L12.9965 14.0853L11.7374 15.3252H7.84004V11.5795H11.7974L13.0079 12.8073L14.2594 11.5795H17.4033C18.1842 11.5795 19.0615 11.7762 19.0615 12.8135C19.0615 13.854 18.2082 14.0688 17.3481 14.0688ZM23.2516 13.899C23.3906 14.0818 23.4106 14.2525 23.4147 14.5827V15.3252H22.4267V14.8566C22.4267 14.6313 22.4507 14.2976 22.2677 14.1234C22.1241 13.9893 21.9049 13.9573 21.5458 13.9573H20.4943V15.3252H19.5057V11.5795H21.7772C22.2755 11.5795 22.6382 11.5997 22.9611 11.7563C23.2716 11.9269 23.4671 12.1608 23.4671 12.5881C23.467 13.1859 23.0287 13.4909 22.7697 13.5846C22.9886 13.6581 23.1675 13.7899 23.2516 13.899ZM27.3159 12.3542H25.0119V13.0351H27.2596V13.7994H25.0119V14.5446L27.3159 14.548V15.3252H24.0321V11.5795H27.3159V12.3542ZM29.8443 15.3252H27.928V14.5219H29.8366C30.0233 14.5219 30.1556 14.4995 30.2386 14.4291C30.3062 14.3712 30.3548 14.287 30.3548 14.185C30.3548 14.0758 30.3021 13.9891 30.2347 13.9371C30.1594 13.88 30.0556 13.8542 29.8843 13.8542C28.9642 13.8254 27.8118 13.8799 27.8118 12.6947C27.8118 12.1514 28.1871 11.5795 29.2186 11.5795H31.1912V12.3766H29.3862C29.2073 12.3766 29.091 12.3829 28.9921 12.4445C28.8842 12.5051 28.8442 12.5951 28.8442 12.7138C28.8442 12.8551 28.9358 12.9513 29.0595 12.9929C29.1633 13.0257 29.2747 13.0353 29.4424 13.0353L29.9721 13.0485C30.506 13.0601 30.8728 13.1443 31.0957 13.3496C31.2871 13.5299 31.39 13.7577 31.39 14.1432C31.3899 14.949 30.8365 15.3252 29.8443 15.3252ZM22.2132 12.4146C22.0943 12.3503 21.9189 12.3469 21.7438 12.3469H20.5322V13.1881H21.7276C21.919 13.1881 22.0817 13.182 22.2132 13.1109C22.3407 13.0408 22.417 12.9116 22.417 12.7514C22.417 12.5912 22.3407 12.4752 22.2132 12.4146ZM33.2066 12.3468C33.0276 12.3468 32.9086 12.353 32.8084 12.4145C32.7046 12.4752 32.6647 12.5652 32.6647 12.684C32.6647 12.8252 32.7524 12.9214 32.8798 12.963C32.9837 12.9959 33.0951 13.0055 33.2589 13.0055L33.7923 13.0184C34.3304 13.0305 34.6897 13.1148 34.9087 13.32C34.9486 13.3485 34.9726 13.3805 35 13.4127V12.3469L33.2066 12.3468ZM17.3822 12.3468H16.0993V13.3008H17.3708C17.7488 13.3008 17.9839 13.1301 17.9841 12.8061C17.9839 12.4786 17.7374 12.3468 17.3822 12.3468ZM8.82001 12.3468V13.0278H10.98V13.7921H8.82001V14.5373H11.2391L12.363 13.4384L11.2868 12.3468H8.82001ZM15.1368 14.9662V11.9632L13.6262 13.4406L15.1368 14.9662ZM8.90258 8.95231V9.59772H17.1228L17.119 8.23235H17.2781C17.3895 8.23588 17.4219 8.24521 17.4219 8.41253V9.59776H21.6735V9.27987C22.0164 9.44706 22.5497 9.59776 23.2516 9.59776H25.0402L25.423 8.76599H26.2717L26.646 9.59776H30.0928V8.80766L30.6146 9.59772H33.3767V4.375H30.6433V4.99182L30.2605 4.375H27.4557V4.99182L27.1042 4.375H23.3154C22.6811 4.375 22.1238 4.45553 21.6735 4.67998V4.375H19.0588V4.67998C18.7722 4.44862 18.3817 4.375 17.9477 4.375H8.39561L7.75473 5.72401L7.09654 4.375H4.08795V4.99182L3.75738 4.375H1.19155L4.48728e-05 6.85828V8.84464L1.76193 5.09978H3.22384L4.89715 8.64537V5.09978H6.5031L7.79072 7.6402L8.97366 5.09978H10.6118V8.84464H9.60331L9.59963 5.91173L8.17286 8.84464H7.30897L5.87856 5.90914V8.84464H3.87723L3.49918 8.00934H1.45056L1.0686 8.84464H4.48728e-05L0 9.59801H1.6812L2.06024 8.76621H2.90897L3.28702 9.59801H6.59473V8.96203L6.88995 9.60066H8.60705L8.90258 8.95231ZM21.856 5.53629C22.1739 5.2374 22.6721 5.09957 23.3502 5.09957H24.3027V5.90198H23.3701C23.0113 5.90198 22.8083 5.95055 22.6131 6.12387C22.4453 6.28152 22.3302 6.57959 22.3302 6.97208C22.3302 7.37331 22.4179 7.66257 22.6007 7.85153C22.7522 7.99971 23.0276 8.04466 23.2865 8.04466H23.7285L25.1152 5.0997H26.5894L28.2553 8.64175V5.09974H29.7534L31.4829 7.70782V5.09974H32.4908V8.84447H31.0965L29.2315 6.0338V8.84447H27.2276L26.8448 8.00917H24.8008L24.4294 8.84447H23.2779C22.7997 8.84447 22.1942 8.74827 21.8513 8.43025C21.5055 8.11232 21.3257 7.68161 21.3257 7.00067C21.3255 6.44521 21.4329 5.93751 21.856 5.53629ZM19.8322 5.09961H20.8361V8.84447H19.8322V5.09961ZM15.3059 5.09961H17.5689C18.0716 5.09961 18.4423 5.11175 18.7604 5.27898C19.0716 5.44626 19.2583 5.69048 19.2583 6.10811C19.2583 6.70524 18.8202 7.01367 18.5651 7.10634C18.7803 7.1809 18.9643 7.3126 19.0519 7.42167C19.1908 7.60795 19.2147 7.77432 19.2147 8.10874V8.84443H18.2224L18.2187 8.37218C18.2187 8.14679 18.2424 7.82273 18.0634 7.64267C17.9196 7.51102 17.7004 7.48234 17.3462 7.48234H16.2899V8.84447H15.306L15.3059 5.09961ZM11.3394 5.09961H14.6263V5.87944H12.3235V6.55445H14.571V7.3221H12.3235V8.06997H14.6263V8.84443H11.3394V5.09961Z" fill="#016FD0"/>
</svg>
