<svg width="35" height="20" viewBox="0 0 35 20" fill="none" xmlns="http://www.w3.org/2000/svg">
<rect width="35" height="20" rx="3.75" fill="white"/>
<path d="M21.9511 10.2783C22.4485 10.2891 22.9487 10.2563 23.4441 10.2953C23.9458 10.3889 24.0668 11.1484 23.621 11.3972C23.3169 11.5611 22.9556 11.4582 22.6259 11.4871H21.9511V10.2783ZM23.7317 8.91001C23.8422 9.30008 23.4662 9.65031 23.0905 9.59659H21.9511C21.9591 9.22874 21.9354 8.82948 21.9626 8.481C22.4191 8.49385 22.8798 8.45478 23.3336 8.50143C23.5286 8.55042 23.6918 8.71072 23.7317 8.91001ZM26.474 3.12539C26.4952 3.87033 26.477 4.65464 26.4831 5.41468C26.4817 8.50475 26.4861 11.5947 26.4807 14.685C26.4607 15.843 25.4344 16.8493 24.2843 16.8724C23.1331 16.8771 21.9818 16.8732 20.8304 16.8744V12.2029C22.0849 12.1964 23.34 12.2161 24.5939 12.1931C25.1756 12.1566 25.8127 11.7728 25.8398 11.1326C25.9083 10.4897 25.3022 10.0451 24.7267 9.97482C24.5055 9.96908 24.5119 9.91034 24.7267 9.88471C25.2756 9.76608 25.7066 9.19801 25.5451 8.62908C25.4075 8.0307 24.7461 7.7991 24.196 7.80025C23.0743 7.79263 21.9524 7.79919 20.8307 7.79697C20.8379 6.92485 20.8156 6.0518 20.8427 5.18032C20.9316 4.04314 21.9838 3.10534 23.1177 3.12569C24.2366 3.12552 25.3553 3.12552 26.474 3.12548V3.12539Z" fill="url(#paint0_linear_40_654)"/>
<path d="M8.15484 5.29812C8.18348 4.14188 9.2142 3.14385 10.3628 3.12695C11.5097 3.12342 12.6568 3.12644 13.8037 3.12542C13.8006 6.99397 13.8099 10.8629 13.799 14.7313C13.7548 15.8735 12.7353 16.8525 11.5993 16.8727C10.4502 16.8768 9.30095 16.8733 8.15181 16.8744V12.0454C9.268 12.3091 10.4385 12.4213 11.5772 12.2464C12.2579 12.1369 13.0026 11.8026 13.233 11.0965C13.4026 10.4924 13.3071 9.85673 13.3324 9.23677V7.797H11.3617C11.3529 8.74923 11.3799 9.70312 11.3475 10.6542C11.2944 11.2388 10.7154 11.6102 10.1641 11.5904C9.48032 11.5976 8.12534 11.0948 8.12534 11.0948C8.12193 9.31075 8.14517 7.07646 8.15484 5.29829V5.29812Z" fill="url(#paint1_linear_40_654)"/>
<path d="M14.5386 8.37777C14.4349 8.39977 14.5178 8.02443 14.4913 7.88205C14.4983 6.9818 14.4765 6.08056 14.5033 5.18095C14.5919 4.03896 15.6522 3.09883 16.7907 3.12556H20.1434C20.1403 6.9941 20.1496 10.8631 20.1387 14.7314C20.0945 15.8736 19.0749 16.8526 17.9388 16.8728C16.7897 16.8772 15.6404 16.8735 14.4912 16.8746V11.5837C15.2761 12.2277 16.3428 12.328 17.3206 12.3297C18.0577 12.3294 18.7906 12.2158 19.5064 12.0458V11.0765C18.6997 11.4786 17.7513 11.734 16.8571 11.503C16.2332 11.3477 15.7804 10.7448 15.7905 10.101C15.7182 9.43147 16.1106 8.72463 16.7686 8.5256C17.5854 8.26987 18.4757 8.46545 19.2414 8.79793C19.4055 8.88383 19.572 8.99037 19.5064 8.71616V7.95429C18.2258 7.6496 16.8629 7.53749 15.5764 7.86894C15.204 7.97399 14.8411 8.13332 14.5386 8.37785V8.37777Z" fill="url(#paint2_linear_40_654)"/>
<defs>
<linearGradient id="paint0_linear_40_654" x1="20.7919" y1="9.70595" x2="26.4475" y2="9.70595" gradientUnits="userSpaceOnUse">
<stop stop-color="#58B03A"/>
<stop offset="1" stop-color="#55B330"/>
</linearGradient>
<linearGradient id="paint1_linear_40_654" x1="8.03156" y1="10.1316" x2="13.711" y2="10.1316" gradientUnits="userSpaceOnUse">
<stop stop-color="#0F6EB6"/>
<stop offset="1" stop-color="#006DBA"/>
</linearGradient>
<linearGradient id="paint2_linear_40_654" x1="14.4829" y1="9.8393" x2="20.1424" y2="9.8393" gradientUnits="userSpaceOnUse">
<stop stop-color="#DE0D3D"/>
<stop offset="1" stop-color="#E30138"/>
</linearGradient>
</defs>
</svg>
