<svg width="35" height="20" viewBox="0 0 35 20" fill="none" xmlns="http://www.w3.org/2000/svg">
<rect width="35" height="20" rx="3.75" fill="white"/>
<path d="M17.5104 14.2812C16.5163 15.1192 15.2268 15.625 13.8177 15.625C10.6737 15.625 8.125 13.1066 8.125 10C8.125 6.8934 10.6737 4.375 13.8177 4.375C15.2268 4.375 16.5163 4.88084 17.5104 5.71876C18.5044 4.88084 19.7939 4.375 21.203 4.375C24.347 4.375 26.8957 6.8934 26.8957 10C26.8957 13.1066 24.347 15.625 21.203 15.625C19.7939 15.625 18.5044 15.1192 17.5104 14.2812Z" fill="#ED0006"/>
<path d="M17.5104 14.2812C18.7344 13.2495 19.5105 11.7143 19.5105 10C19.5105 8.2857 18.7344 6.75051 17.5104 5.71878C18.5045 4.88085 19.794 4.375 21.203 4.375C24.347 4.375 26.8958 6.8934 26.8958 10C26.8958 13.1066 24.347 15.625 21.203 15.625C19.794 15.625 18.5045 15.1192 17.5104 14.2812Z" fill="#F9A000"/>
<path d="M17.5104 14.2812C18.7344 13.2495 19.5105 11.7143 19.5105 9.99999C19.5105 8.28568 18.7344 6.75048 17.5104 5.71875C16.2864 6.75048 15.5103 8.28568 15.5103 9.99999C15.5103 11.7143 16.2864 13.2495 17.5104 14.2812Z" fill="#FF5E00"/>
</svg>
