<svg width="107" height="30" viewBox="0 0 107 30" fill="none" xmlns="http://www.w3.org/2000/svg">
<path d="M6 0H100V22C100 26.4183 96.4183 30 92 30H14C9.58172 30 6 26.4183 6 22V0Z" fill="#008F53"/>
<path d="M0 5C0 2.23858 2.23858 0 5 0H102C104.761 0 107 2.23858 107 5H0Z" fill="#005724"/>
<path d="M6 0H100V7H6V0Z" fill="#008F53"/>
<path d="M32.9416 14.0583L31.6749 12.7917C31.4583 12.575 31.2833 12.15 31.2833 11.85V10.05C31.2833 9.31667 30.6833 8.71667 29.9499 8.71667H28.1583C27.8583 8.71667 27.4333 8.54167 27.2166 8.325L25.9499 7.05834C25.4333 6.54167 24.5833 6.54167 24.0666 7.05834L22.7833 8.325C22.5749 8.54167 22.1499 8.71667 21.8416 8.71667H20.0499C19.3166 8.71667 18.7166 9.31667 18.7166 10.05V11.8417C18.7166 12.1417 18.5416 12.5667 18.3249 12.7833L17.0583 14.05C16.5416 14.5667 16.5416 15.4167 17.0583 15.9333L18.3249 17.2C18.5416 17.4167 18.7166 17.8417 18.7166 18.1417V19.9333C18.7166 20.6667 19.3166 21.2667 20.0499 21.2667H21.8416C22.1416 21.2667 22.5666 21.4417 22.7833 21.6583L24.0499 22.925C24.5666 23.4417 25.4166 23.4417 25.9333 22.925L27.1999 21.6583C27.4166 21.4417 27.8416 21.2667 28.1416 21.2667H29.9333C30.6666 21.2667 31.2666 20.6667 31.2666 19.9333V18.1417C31.2666 17.8417 31.4416 17.4167 31.6583 17.2L32.9249 15.9333C33.4666 15.425 33.4666 14.575 32.9416 14.0583ZM21.6666 12.5C21.6666 12.0417 22.0416 11.6667 22.4999 11.6667C22.9583 11.6667 23.3333 12.0417 23.3333 12.5C23.3333 12.9583 22.9666 13.3333 22.4999 13.3333C22.0416 13.3333 21.6666 12.9583 21.6666 12.5ZM22.9416 17.9417C22.8166 18.0667 22.6583 18.125 22.4999 18.125C22.3416 18.125 22.1833 18.0667 22.0583 17.9417C21.8166 17.7 21.8166 17.3 22.0583 17.0583L27.0583 12.0583C27.2999 11.8167 27.6999 11.8167 27.9416 12.0583C28.1833 12.3 28.1833 12.7 27.9416 12.9417L22.9416 17.9417ZM27.4999 18.3333C27.0333 18.3333 26.6583 17.9583 26.6583 17.5C26.6583 17.0417 27.0333 16.6667 27.4916 16.6667C27.9499 16.6667 28.3249 17.0417 28.3249 17.5C28.3249 17.9583 27.9583 18.3333 27.4999 18.3333Z" fill="#FAFCFC"/>
<path d="M37.7398 17.296V15.976L41.6638 10.36H43.6198V15.832H44.6758V17.296H43.6198V19H41.9398V17.296H37.7398ZM42.0478 12.16L39.5878 15.832H42.0478V12.16ZM45.7454 14.512C45.7454 13.128 45.9934 12.044 46.4894 11.26C46.9934 10.476 47.8254 10.084 48.9854 10.084C50.1454 10.084 50.9734 10.476 51.4694 11.26C51.9734 12.044 52.2254 13.128 52.2254 14.512C52.2254 15.904 51.9734 16.996 51.4694 17.788C50.9734 18.58 50.1454 18.976 48.9854 18.976C47.8254 18.976 46.9934 18.58 46.4894 17.788C45.9934 16.996 45.7454 15.904 45.7454 14.512ZM50.5694 14.512C50.5694 13.92 50.5294 13.424 50.4494 13.024C50.3774 12.616 50.2254 12.284 49.9934 12.028C49.7694 11.772 49.4334 11.644 48.9854 11.644C48.5374 11.644 48.1974 11.772 47.9654 12.028C47.7414 12.284 47.5894 12.616 47.5094 13.024C47.4374 13.424 47.4014 13.92 47.4014 14.512C47.4014 15.12 47.4374 15.632 47.5094 16.048C47.5814 16.456 47.7334 16.788 47.9654 17.044C48.1974 17.292 48.5374 17.416 48.9854 17.416C49.4334 17.416 49.7734 17.292 50.0054 17.044C50.2374 16.788 50.3894 16.456 50.4614 16.048C50.5334 15.632 50.5694 15.12 50.5694 14.512ZM53.3112 12.4C53.3112 11.792 53.4872 11.316 53.8392 10.972C54.1992 10.628 54.6592 10.456 55.2192 10.456C55.7792 10.456 56.2352 10.628 56.5872 10.972C56.9472 11.316 57.1272 11.792 57.1272 12.4C57.1272 13.016 56.9472 13.496 56.5872 13.84C56.2352 14.184 55.7792 14.356 55.2192 14.356C54.6592 14.356 54.1992 14.184 53.8392 13.84C53.4872 13.496 53.3112 13.016 53.3112 12.4ZM61.0152 10.6L56.2992 19H54.6672L59.3712 10.6H61.0152ZM55.2072 11.464C54.7672 11.464 54.5472 11.776 54.5472 12.4C54.5472 13.032 54.7672 13.348 55.2072 13.348C55.4232 13.348 55.5912 13.272 55.7112 13.12C55.8312 12.96 55.8912 12.72 55.8912 12.4C55.8912 11.776 55.6632 11.464 55.2072 11.464ZM58.5792 17.188C58.5792 16.572 58.7552 16.096 59.1072 15.76C59.4672 15.416 59.9272 15.244 60.4872 15.244C61.0472 15.244 61.4992 15.416 61.8432 15.76C62.1952 16.096 62.3712 16.572 62.3712 17.188C62.3712 17.804 62.1952 18.284 61.8432 18.628C61.4992 18.972 61.0472 19.144 60.4872 19.144C59.9192 19.144 59.4592 18.972 59.1072 18.628C58.7552 18.284 58.5792 17.804 58.5792 17.188ZM60.4752 16.252C60.0192 16.252 59.7912 16.564 59.7912 17.188C59.7912 17.82 60.0192 18.136 60.4752 18.136C60.9232 18.136 61.1472 17.82 61.1472 17.188C61.1472 16.564 60.9232 16.252 60.4752 16.252ZM70.3918 19.084C69.6078 19.084 68.8878 18.9 68.2318 18.532C67.5758 18.164 67.0558 17.656 66.6718 17.008C66.2878 16.352 66.0958 15.612 66.0958 14.788C66.0958 13.972 66.2878 13.24 66.6718 12.592C67.0558 11.936 67.5758 11.424 68.2318 11.056C68.8878 10.688 69.6078 10.504 70.3918 10.504C71.1838 10.504 71.9038 10.688 72.5518 11.056C73.2078 11.424 73.7238 11.936 74.0998 12.592C74.4838 13.24 74.6758 13.972 74.6758 14.788C74.6758 15.612 74.4838 16.352 74.0998 17.008C73.7238 17.656 73.2078 18.164 72.5518 18.532C71.8958 18.9 71.1758 19.084 70.3918 19.084ZM70.3918 17.584C70.8958 17.584 71.3398 17.472 71.7238 17.248C72.1078 17.016 72.4078 16.688 72.6238 16.264C72.8398 15.84 72.9478 15.348 72.9478 14.788C72.9478 14.228 72.8398 13.74 72.6238 13.324C72.4078 12.9 72.1078 12.576 71.7238 12.352C71.3398 12.128 70.8958 12.016 70.3918 12.016C69.8878 12.016 69.4398 12.128 69.0478 12.352C68.6638 12.576 68.3638 12.9 68.1478 13.324C67.9318 13.74 67.8238 14.228 67.8238 14.788C67.8238 15.348 67.9318 15.84 68.1478 16.264C68.3638 16.688 68.6638 17.016 69.0478 17.248C69.4398 17.472 69.8878 17.584 70.3918 17.584ZM81.0977 10.624V11.98H77.6057V14.128H80.2817V15.46H77.6057V19H75.9257V10.624H81.0977ZM87.4609 10.624V11.98H83.9689V14.128H86.6449V15.46H83.9689V19H82.2889V10.624H87.4609Z" fill="#FAFCFC"/>
</svg>
