<svg width="35" height="20" viewBox="0 0 35 20" fill="none" xmlns="http://www.w3.org/2000/svg">
<rect width="35" height="20" rx="3.75" fill="white"/>
<path d="M18.5864 5.89502L16.7562 6.29936V4.77185L18.5864 4.375V5.89502Z" fill="#6461FC"/>
<path fill-rule="evenodd" clip-rule="evenodd" d="M22.3925 6.74113C21.678 6.74113 21.2186 7.08557 20.9634 7.32518L20.8686 6.86094H19.2644V15.5917L21.0873 15.1948L21.0946 13.0758C21.3571 13.2705 21.7436 13.5475 22.3853 13.5475C23.6905 13.5475 24.879 12.4693 24.879 10.0957C24.8717 7.9242 23.6686 6.74113 22.3925 6.74113ZM21.955 11.9002C21.5248 11.9002 21.2696 11.743 21.0946 11.5483L21.0873 8.77032C21.2769 8.55317 21.5394 8.40341 21.955 8.40341C22.6185 8.40341 23.0779 9.16717 23.0779 10.1481C23.0779 11.1514 22.6258 11.9002 21.955 11.9002Z" fill="#6461FC"/>
<path fill-rule="evenodd" clip-rule="evenodd" d="M30.625 10.1705C30.625 8.25366 29.7208 6.74113 27.9927 6.74113C26.2573 6.74113 25.2073 8.25366 25.2073 10.1556C25.2073 12.4094 26.4469 13.5475 28.226 13.5475C29.0938 13.5475 29.75 13.3453 30.2458 13.0608V11.5633C29.75 11.8178 29.1813 11.9751 28.4594 11.9751C27.7521 11.9751 27.125 11.7205 27.0448 10.8369H30.6104C30.6104 10.7957 30.613 10.7019 30.6161 10.5939C30.6202 10.4471 30.625 10.2741 30.625 10.1705ZM27.0229 9.4592C27.0229 8.61308 27.5261 8.26116 27.9854 8.26116C28.4302 8.26116 28.9042 8.61308 28.9042 9.4592H27.0229Z" fill="#6461FC"/>
<path d="M16.7562 6.86844H18.5864V13.4202H16.7562V6.86844Z" fill="#6461FC"/>
<path d="M14.6782 6.86843L14.7948 7.42253C15.2251 6.61385 16.0782 6.77858 16.3115 6.86843V8.59062C16.0855 8.50826 15.3563 8.40343 14.9261 8.97999V13.4202H13.1032V6.86843H14.6782Z" fill="#6461FC"/>
<path d="M11.1489 5.24357L9.36975 5.63293L9.36246 11.6306C9.36246 12.7388 10.1718 13.555 11.251 13.555C11.8489 13.555 12.2864 13.4427 12.5271 13.3079V11.7879C12.2937 11.8852 11.1416 12.2297 11.1416 11.1215V8.46331H12.5271V6.86842H11.1416L11.1489 5.24357Z" fill="#6461FC"/>
<path d="M6.83959 8.366C6.45313 8.366 6.2198 8.47831 6.2198 8.77034C6.2198 9.08918 6.62137 9.22944 7.11956 9.40344C7.93174 9.68711 9.0007 10.0605 9.00522 11.4435C9.00522 12.7838 7.96251 13.555 6.44584 13.555C5.81875 13.555 5.13334 13.4277 4.45521 13.1282V11.3461C5.06771 11.6906 5.84063 11.9452 6.44584 11.9452C6.85417 11.9452 7.14584 11.8328 7.14584 11.4884C7.14584 11.1352 6.71053 10.9738 6.18499 10.7789C5.38463 10.4821 4.375 10.1077 4.375 8.86019C4.375 7.53485 5.35938 6.74115 6.83959 6.74115C7.4448 6.74115 8.04272 6.83849 8.64793 7.08558V8.84521C8.09376 8.53822 7.39376 8.366 6.83959 8.366Z" fill="#6461FC"/>
</svg>
