<svg width="24" height="24" viewBox="0 0 24 24" fill="none" xmlns="http://www.w3.org/2000/svg">
<path fill-rule="evenodd" clip-rule="evenodd" d="M12 21.9998C17.5228 21.9998 22 17.5227 22 11.9998C22 6.47697 17.5228 1.99982 12 1.99982C6.47715 1.99982 2 6.47697 2 11.9998C2 17.5227 6.47715 21.9998 12 21.9998ZM16.9397 10.2239C17.3396 9.84294 17.355 9.20997 16.9741 8.81008C16.5931 8.41019 15.9601 8.39483 15.5603 8.77576L10.4222 13.6703L8.4409 11.7769C8.04162 11.3953 7.40862 11.4096 7.02705 11.8089C6.64547 12.2082 6.65983 12.8412 7.0591 13.2228L9.73018 15.7754L10.42 16.4346L11.1108 15.7765L16.9397 10.2239Z" fill="#33CC4D"/>
</svg>
