<svg width="24" height="24" viewBox="0 0 24 24" fill="none" xmlns="http://www.w3.org/2000/svg">
<path d="M11.7717 22.1212C11.9486 22.1212 12.2106 22.0519 12.4654 21.9213C18.2206 18.957 20.1148 17.4007 20.1148 13.7964V6.32218C20.1148 5.1538 19.6655 4.73373 18.6808 4.3207C17.5779 3.86748 13.8826 2.55384 12.8061 2.19002C12.477 2.08516 12.1072 2.02228 11.7717 2.02228C11.438 2.02228 11.0681 2.09339 10.7455 2.19002C9.66069 2.53737 5.96727 3.87572 4.86436 4.3207C3.88783 4.72368 3.42859 5.1538 3.42859 6.32218V13.7964C3.42859 17.4007 5.40879 18.8133 11.078 21.9213C11.341 22.0602 11.5965 22.1212 11.7717 22.1212Z" fill="#34C759"/>
<path d="M10.6541 16.5874C10.2746 16.5874 9.96447 16.4315 9.68523 16.0673L7.22188 13.073C7.04409 12.8431 6.95007 12.6031 6.95007 12.3568C6.95007 11.8369 7.35769 11.4218 7.87579 11.4218C8.18596 11.4218 8.42503 11.5385 8.68518 11.8682L10.6194 14.3263L14.7729 7.67798C14.9926 7.32502 15.2773 7.15265 15.5919 7.15265C16.0853 7.15265 16.5477 7.50462 16.5477 8.02272C16.5477 8.26278 16.4326 8.51008 16.2858 8.73086L11.5847 16.0601C11.3557 16.405 11.0282 16.5874 10.6541 16.5874Z" fill="#121212"/>
</svg>
