<svg width="18" height="18" viewBox="0 0 18 18" fill="none" xmlns="http://www.w3.org/2000/svg">
<path d="M6.75007 9.01426L8.25513 10.5177C8.979 9.25194 9.98079 8.16703 11.185 7.34476L11.2501 7.3003M8.0628 1.77597L4.0221 3.23511C3.16021 3.54634 2.57318 4.34919 2.53796 5.26488L2.44252 7.74631C2.32426 10.8211 3.92699 13.7061 6.60005 15.2303L7.74056 15.8805C8.41617 16.2658 9.24282 16.2748 9.92666 15.9044L11.0431 15.2996C13.9062 13.7488 15.5892 10.6591 15.3395 7.41268L15.1693 5.19981C15.1014 4.31739 14.5225 3.55673 13.6901 3.25613L9.5912 1.77597C9.09734 1.59763 8.55666 1.59763 8.0628 1.77597Z" stroke="#30DB5B" stroke-width="1.5" stroke-linecap="round" stroke-linejoin="round"/>
</svg>
