<svg width="35" height="20" viewBox="0 0 35 20" fill="none" xmlns="http://www.w3.org/2000/svg">
<rect width="35" height="20" rx="3.75" fill="white"/>
<path d="M21.5513 5.625C22.3739 5.625 23.0392 5.81423 23.4586 5.98561L23.1694 7.81466L22.9771 7.72471C22.5923 7.55345 22.0844 7.38231 21.3931 7.40039C20.5535 7.40039 20.177 7.76962 20.1683 8.13012C20.1683 8.52666 20.6238 8.78798 21.3675 9.17554C22.5926 9.77927 23.1609 10.5181 23.1524 11.4823C23.1352 13.2395 21.6826 14.375 19.4514 14.375C18.4974 14.3659 17.5786 14.1582 17.0799 13.9242L17.3774 12.0228L17.6574 12.1582C18.3487 12.4739 18.8036 12.6087 19.6526 12.6087C20.2648 12.6087 20.9212 12.3471 20.9296 11.7797C20.9296 11.4102 20.6499 11.1397 19.8272 10.7252C19.0223 10.3195 17.9461 9.64382 17.9636 8.42725C17.9727 6.77833 19.4514 5.625 21.5513 5.625Z" fill="#00579F"/>
<path d="M13.6236 14.2488H15.7501L17.08 5.77854H14.9537L13.6236 14.2488Z" fill="#00579F"/>
<path fill-rule="evenodd" clip-rule="evenodd" d="M28.9096 5.77854H27.2648C26.7576 5.77854 26.3722 5.9316 26.1534 6.48132L22.9948 14.2486H25.226C25.226 14.2486 25.5934 13.2032 25.6723 12.9781H28.4025C28.4635 13.2754 28.6562 14.2486 28.6562 14.2486H30.6251L28.9096 5.77854ZM26.2848 11.2481C26.4599 10.7615 27.1337 8.87817 27.1337 8.87817C27.1302 8.88547 27.158 8.80603 27.1993 8.68795C27.2604 8.51367 27.3509 8.2552 27.4135 8.06724L27.5621 8.79709C27.5621 8.79709 27.9648 10.8246 28.0522 11.2481H26.2848Z" fill="#00579F"/>
<path d="M9.76503 11.5544L11.8475 5.77854H14.096L10.7537 14.2398H8.50501L6.59753 6.83259C7.945 7.5628 9.15246 9.03135 9.53747 10.383L9.76503 11.5544Z" fill="#00579F"/>
<path d="M7.83123 5.7785H4.41L4.375 5.94965C7.04377 6.65255 8.81124 8.34686 9.53742 10.3833L8.79369 6.4905C8.67124 5.94953 8.29496 5.79635 7.83123 5.7785Z" fill="#FAA61A"/>
</svg>
