<svg width="22" height="22" viewBox="0 0 22 22" fill="none" xmlns="http://www.w3.org/2000/svg">
<path d="M3.33629 20.7216H18.6648C20.3952 20.7216 21.4789 19.4784 21.4789 17.9202C21.4789 17.4399 21.3419 16.9398 21.0851 16.4874L13.41 3.10613C12.8712 2.16451 11.9512 1.69232 11.0014 1.69232C10.0499 1.69232 9.11646 2.16808 8.58933 3.10613L0.914243 16.4892C0.642946 16.9479 0.520386 17.4399 0.520386 17.9202C0.520386 19.4784 1.60419 20.7216 3.33629 20.7216Z" fill="#FFD60A"/>
<path d="M11.0113 13.9301C10.4297 13.9301 10.0992 13.5987 10.0805 13.0107L9.94085 8.01623C9.92198 7.41037 10.3605 6.98538 11.0014 6.98538C11.6261 6.98538 12.089 7.4185 12.0702 8.02436L11.9142 13.0071C11.8955 13.6068 11.5668 13.9301 11.0113 13.9301ZM11.0113 17.3465C10.3467 17.3465 9.7937 16.8598 9.7937 16.2141C9.7937 15.562 10.3386 15.0753 11.0113 15.0753C11.6777 15.0753 12.2173 15.5557 12.2173 16.2141C12.2173 16.8679 11.6678 17.3465 11.0113 17.3465Z" fill="#121212"/>
</svg>
