<svg width="29" height="28" viewBox="0 0 29 28" fill="none" xmlns="http://www.w3.org/2000/svg">
<path d="M14.2336 25.8081C14.4401 25.8081 14.7457 25.7272 15.0429 25.5749C21.7573 22.1165 23.9672 20.3008 23.9672 16.0958V7.37593C23.9672 6.01281 23.4431 5.52273 22.2942 5.04086C21.0075 4.51211 16.6964 2.97953 15.4404 2.55508C15.0565 2.43273 14.625 2.35938 14.2336 2.35938C13.8443 2.35938 13.4128 2.44234 13.0364 2.55508C11.7708 2.96031 7.46179 4.52172 6.17507 5.04086C5.03578 5.51101 4.5 6.01281 4.5 7.37593V16.0958C4.5 20.3008 6.81023 21.9489 13.4243 25.5749C13.7311 25.7369 14.0292 25.8081 14.2336 25.8081Z" fill="#34C759"/>
<path d="M12.9298 19.3519C12.4871 19.3519 12.1252 19.17 11.7994 18.7451L8.92551 15.2518C8.71809 14.9836 8.6084 14.7036 8.6084 14.4162C8.6084 13.8097 9.08395 13.3254 9.6884 13.3254C10.0503 13.3254 10.3292 13.4616 10.6327 13.8462L12.8893 16.714L17.735 8.95762C17.9914 8.54583 18.3235 8.34473 18.6905 8.34473C19.2662 8.34473 19.8057 8.75536 19.8057 9.35981C19.8057 9.63988 19.6714 9.9284 19.5001 10.186L14.0154 18.7367C13.7482 19.1391 13.3662 19.3519 12.9298 19.3519Z" fill="#121212"/>
</svg>
